<svg xmlns="http://www.w3.org/2000/svg" viewBox="0 0 64 64" role="img" aria-label="超能日志 Logo">
  <rect width="64" height="64" rx="16" fill="#0f4c81"/>
  <path d="M11 48c6-13 16-20 30-22 6-.8 10-3.4 12-7 .7 10-2.7 18.8-10.4 26.2C34.8 52.7 24.3 53.6 11 48Z" fill="#e74856"/>
  <path d="M19 49c4.7-10.4 13-16.5 24.8-18.4 3.4-.5 6-1.6 7.9-3.2-2.2 7.1-6.5 12.7-12.7 16.8-5.6 3.8-12.3 5.4-20 4.8Z" fill="#c4314b"/>
  <path d="M20 31.4c0-7.7 5.7-13.8 13-13.8s13 6.1 13 13.8v3.8c0 7.9-5.6 14.2-13 14.2s-13-6.3-13-14.2v-3.8Z" fill="#f2d2bd"/>
  <path d="M18.9 31.6c1-10 6.9-16.1 15.2-16.1 6.4 0 11 3.3 13.4 9.1-5.8-.2-10.7-1.8-14.6-4.8-2.2 4.6-6.9 8.5-14 11.8Z" fill="#141414"/>
  <path d="M25.5 34.5c1.7-1.1 3.5-1.1 5.3 0" fill="none" stroke="#141414" stroke-width="2.2" stroke-linecap="round"/>
  <path d="M35.2 34.5c1.7-1.1 3.5-1.1 5.3 0" fill="none" stroke="#141414" stroke-width="2.2" stroke-linecap="round"/>
  <path d="M29.2 41.2c2.5 1.4 5.1 1.4 7.6 0" fill="none" stroke="#7a3f2f" stroke-width="2" stroke-linecap="round"/>
  <path d="M23 52c3.1-3.3 6.5-5 10-5s6.9 1.7 10 5H23Z" fill="#0078d4"/>
  <path d="M26.4 52c1.8-1.8 4-2.7 6.6-2.7s4.8.9 6.6 2.7H26.4Z" fill="#60cdff"/>
</svg>
