<svg xmlns="http://www.w3.org/2000/svg" viewBox="0 0 64 64">
  <rect width="64" height="64" rx="16" fill="#0078d4"/>
  <path d="M18 43c7.8-2.8 15-7.2 21.1-13.3l5.2-5.2 3.2 3.2-5.2 5.2C35.9 39.3 28 44 19.4 46.8L18 43Z" fill="#ffffff" opacity=".96"/>
  <path d="M18 21.8c7.6.7 14.9 3.6 21 8.5-5.9 4.9-13.2 7.9-21 8.6V21.8Z" fill="#ffffff"/>
  <path d="M18 21.8c5.1.5 10.1 2 14.6 4.5-4.2 2.9-9.2 4.8-14.6 5.5v-10Z" fill="#eff6fc"/>
  <path d="M38.7 19.5 52 16l-3.5 13.3-4.1-4.1-5.4 5.4a33.7 33.7 0 0 1-9.6 6.9 41.5 41.5 0 0 0 7.4-8.7l5.4-5.4-3.5-3.9Z" fill="#e74856"/>
  <path d="M16 21.5c0-1.4 1.1-2.5 2.5-2.5h1.8v23.7h-1.8A2.5 2.5 0 0 1 16 40.2V21.5Z" fill="#ffffff"/>
</svg>
